<svg version="1.1" id="Layer_1" xmlns="http://www.w3.org/2000/svg" xmlns:xlink="http://www.w3.org/1999/xlink" x="0px" y="0px"
	 width="100%" viewBox="0 0 288 288" enable-background="new 0 0 288 288" xml:space="preserve">
<path fill="#292929" opacity="1.000000" stroke="none" 
	d="
M167.000000,289.000000 
	C152.312439,289.000000 137.624878,289.000000 122.395782,288.623474 
	C121.348694,287.870667 120.895668,287.300171 120.329720,287.147125 
	C111.545624,284.771484 102.526558,283.063721 93.993042,280.000336 
	C68.855293,270.976288 47.992554,255.558212 31.570509,234.665298 
	C16.824526,215.904755 6.822809,194.689651 2.860599,170.900574 
	C2.741187,170.183640 1.642252,169.629852 1.000000,169.000000 
	C1.000000,153.312439 1.000000,137.624878 1.376461,121.395828 
	C2.154153,120.184555 2.733979,119.562820 2.929073,118.837585 
	C4.946305,111.338852 6.327518,103.613884 8.979018,96.351013 
	C17.730322,72.379860 31.482889,51.806263 51.167122,35.228642 
	C68.760330,20.412041 88.454124,10.047546 110.866402,4.786004 
	C114.664543,3.894347 118.293098,2.280299 122.000000,1.000001 
	C136.687561,1.000000 151.375122,1.000000 166.608093,1.380891 
	C169.153915,2.238673 171.150482,2.732395 173.155304,3.189895 
	C197.484726,8.741869 219.745163,18.809450 238.571198,35.273129 
	C264.686829,58.111675 281.264374,86.619263 287.062225,121.096825 
	C287.238251,122.143562 288.333405,123.035751 289.000000,124.000000 
	C289.000000,137.687561 289.000000,151.375122 288.623535,165.608261 
	C287.835327,166.990143 287.195587,167.787399 287.044647,168.668396 
	C280.221008,208.490173 259.971191,239.941086 227.281433,263.297272 
	C209.942322,275.685730 190.597778,283.764618 169.403259,287.098053 
	C168.524200,287.236328 167.797623,288.343964 167.000000,289.000000 
M130.071762,122.947701 
	C130.071762,122.947701 130.148361,122.926979 130.398331,123.493347 
	C131.607925,124.240768 132.817505,124.988190 134.237976,126.093071 
	C134.237976,126.093071 134.649139,126.149681 134.918961,126.707886 
	C135.629013,127.091850 136.339050,127.475815 137.384598,128.400818 
	C138.794449,129.321136 140.204300,130.241470 141.897888,131.715729 
	C144.210114,133.904892 146.179581,133.457291 147.949524,130.966232 
	C147.949524,130.966232 147.947739,130.891052 148.572327,130.812241 
	C149.181396,130.263123 149.790466,129.714005 150.795013,129.106430 
	C150.795013,129.106430 150.975906,128.749908 151.564346,128.683533 
	C152.121017,128.155914 152.677704,127.628281 153.867706,126.956009 
	C155.223282,125.903801 156.578842,124.851601 158.542068,123.749496 
	C159.120682,123.206116 159.699295,122.662735 160.908508,121.977104 
	C162.251205,120.920792 163.593918,119.864471 165.540222,118.733345 
	C166.118286,118.194771 166.696350,117.656197 167.813400,117.014862 
	C168.195663,116.639236 168.577911,116.263603 169.587967,115.832680 
	C170.190674,115.276329 170.793381,114.719978 171.789230,114.119232 
	C171.789230,114.119232 171.977936,113.771507 172.568451,113.708954 
	C173.119553,113.171005 173.670639,112.633057 174.772629,112.003815 
	C175.167587,111.629120 175.562531,111.254425 176.582581,110.816933 
	C177.190277,110.266846 177.797958,109.716766 178.797455,109.121323 
	C178.797455,109.121323 178.977859,108.770569 179.571869,108.708733 
	C180.140869,108.178932 180.709869,107.649124 181.814407,107.016777 
	C182.197571,106.644127 182.580734,106.271484 183.947968,105.706810 
	C184.557144,106.689507 185.461838,107.602303 185.714264,108.669395 
	C186.248444,110.927635 186.442123,113.266418 187.025864,116.165306 
	C188.004623,116.301315 188.983398,116.437332 190.654541,116.549744 
	C191.154968,115.731056 192.076187,114.919258 192.089722,114.092598 
	C192.205139,107.039597 192.155807,99.983887 192.155807,92.740982 
	C191.244034,92.941521 190.699326,92.917679 190.353729,93.168358 
	C189.707626,93.637009 189.177032,94.264931 188.208954,94.869232 
	C188.208954,94.869232 188.020508,95.212700 187.419724,95.272545 
	C186.845078,95.804985 186.270432,96.337418 185.049088,97.028648 
	C174.248978,104.717468 163.159714,112.039894 152.765762,120.243324 
	C147.227249,124.614578 142.672272,126.293999 137.015015,120.355713 
	C136.333344,120.007751 135.651688,119.659790 134.600540,118.760178 
	C133.143677,117.806915 131.686829,116.853645 129.993118,115.360046 
	C129.320145,114.996132 128.647171,114.632217 127.588219,113.732857 
	C126.130150,112.791092 124.672089,111.849319 122.994698,110.362129 
	C122.321159,109.997238 121.647629,109.632339 120.553169,108.715149 
	C113.423714,103.780663 106.294258,98.846176 99.218834,93.314789 
	C98.563637,93.572220 97.908447,93.829651 97.111633,95.003548 
	C97.111633,128.574326 97.111633,162.145096 97.111633,196.165192 
	C90.488319,196.165192 84.538719,196.165192 78.432762,195.215683 
	C78.397110,171.191757 78.336617,147.167786 78.400902,123.144119 
	C78.404037,121.972565 79.500732,120.803940 80.385361,119.977654 
	C80.385361,119.977654 80.821640,120.104530 81.022575,120.664680 
	C81.706642,121.022232 82.390709,121.379784 83.340187,122.053711 
	C83.340187,122.053711 83.739738,122.158157 84.025208,122.747475 
	C88.036034,125.303734 88.362061,125.261543 90.606133,121.232628 
	C90.150673,120.440628 89.695206,119.648628 89.047272,118.274849 
	C88.351967,117.891197 87.656654,117.507553 86.590683,116.715569 
	C86.120537,116.441643 85.650398,116.167709 84.960098,115.346405 
	C84.280128,114.992622 83.600151,114.638840 82.644791,113.965050 
	C82.644791,113.965050 82.236519,113.857536 82.013184,113.295013 
	C81.322220,112.930916 80.631248,112.566818 79.567802,111.779434 
	C79.090714,111.493408 78.613625,111.207382 77.926918,110.379059 
	C77.252579,110.038071 76.578232,109.697083 75.438187,108.859840 
	C74.671371,108.386688 73.904556,107.913536 72.886162,106.982010 
	C72.440414,108.480598 71.610725,109.977989 71.606049,111.477951 
	C71.525658,137.230103 71.546967,162.982590 71.546455,188.735001 
	C71.546379,192.390182 71.619614,196.047165 71.526688,199.699951 
	C71.459129,202.355667 72.411804,203.476639 76.016953,202.704254 
	C84.643791,202.654449 93.270622,202.604630 102.672195,202.638687 
	C103.017456,200.938568 103.659943,199.239105 103.663696,197.538239 
	C103.726761,168.932434 103.710205,140.326462 103.711296,111.720520 
	C103.711372,109.795815 103.711304,107.871101 103.711304,105.555748 
	C105.308945,106.057945 106.205727,106.339836 107.573662,107.106270 
	C109.596077,108.455132 111.618500,109.803993 113.908211,111.715736 
	C114.624748,112.087349 115.341293,112.458961 116.382744,113.386467 
	C117.815033,114.303566 119.247322,115.220665 120.940842,116.699715 
	C121.643333,117.087143 122.345818,117.474571 123.388168,118.405304 
	C124.811195,119.318878 126.234230,120.232452 127.931648,121.705513 
	C128.641571,122.093346 129.351486,122.481186 130.071762,122.947701 
M111.231903,141.735855 
	C121.148338,148.761673 131.147217,155.675644 140.928574,162.884705 
	C143.691788,164.921280 145.496017,164.917770 148.273193,162.867722 
	C167.160873,148.925186 186.190872,135.175385 205.182831,121.374229 
	C206.860443,120.155136 208.594696,119.013969 211.144730,117.256119 
	C211.144730,120.304459 211.139648,122.242264 211.145493,124.180031 
	C211.216919,147.822495 211.289963,171.464966 210.925903,195.504639 
	C210.658859,195.793411 210.391830,196.082184 209.184311,196.214203 
	C203.660416,196.180038 198.136505,196.145889 192.437469,195.172546 
	C192.394363,185.395462 192.401642,175.617828 192.291031,165.841507 
	C192.212662,158.915207 191.974930,151.990707 191.771271,144.320374 
	C190.136185,144.105865 188.501114,143.891342 186.244431,144.139816 
	C186.085770,144.775375 185.789688,145.410690 185.788467,146.046539 
	C185.754349,163.971329 185.731186,181.896255 185.795959,199.820831 
	C185.799210,200.721649 186.605621,201.619537 187.945740,202.742554 
	C197.707199,202.742554 207.468674,202.742554 217.248596,202.742554 
	C217.248596,169.871506 217.248596,137.711792 217.248596,104.755081 
	C210.175323,109.855354 203.749191,114.459816 197.353622,119.106316 
	C180.910568,131.052521 164.442551,142.965134 148.086258,155.029144 
	C145.528854,156.915421 143.723206,157.024353 141.116562,155.109558 
	C133.063110,149.193573 124.826988,143.524765 116.616440,137.825317 
	C114.820770,136.578827 112.935577,134.380127 110.209229,137.627441 
	C110.454468,138.795547 110.699699,139.963654 111.231903,141.735855 
z"/>
<path fill="#000000" opacity="1.000000" stroke="none" 
	d="
M289.000000,123.531342 
	C288.333405,123.035751 287.238251,122.143562 287.062225,121.096825 
	C281.264374,86.619263 264.686829,58.111675 238.571198,35.273129 
	C219.745163,18.809450 197.484726,8.741869 173.155304,3.189895 
	C171.150482,2.732395 169.153915,2.238673 167.076752,1.380891 
	C207.593933,1.000000 248.187866,1.000000 289.000000,1.000000 
	C289.000000,41.687302 289.000000,82.374992 289.000000,123.531342 
z"/>
<path fill="#000000" opacity="1.000000" stroke="none" 
	d="
M167.468658,289.000000 
	C167.797623,288.343964 168.524200,287.236328 169.403259,287.098053 
	C190.597778,283.764618 209.942322,275.685730 227.281433,263.297272 
	C259.971191,239.941086 280.221008,208.490173 287.044647,168.668396 
	C287.195587,167.787399 287.835327,166.990143 288.623535,166.076920 
	C289.000000,206.926666 289.000000,247.853333 289.000000,289.000000 
	C248.646042,289.000000 208.291672,289.000000 167.468658,289.000000 
z"/>
<path fill="#000000" opacity="1.000000" stroke="none" 
	d="
M121.531342,1.000001 
	C118.293098,2.280299 114.664543,3.894347 110.866402,4.786004 
	C88.454124,10.047546 68.760330,20.412041 51.167122,35.228642 
	C31.482889,51.806263 17.730322,72.379860 8.979018,96.351013 
	C6.327518,103.613884 4.946305,111.338852 2.929073,118.837585 
	C2.733979,119.562820 2.154153,120.184555 1.376461,120.927170 
	C1.000000,81.072731 1.000000,41.145458 1.000000,1.000000 
	C41.020630,1.000000 81.041656,1.000000 121.531342,1.000001 
z"/>
<path fill="#000000" opacity="1.000000" stroke="none" 
	d="
M1.000000,169.468658 
	C1.642252,169.629852 2.741187,170.183640 2.860599,170.900574 
	C6.822809,194.689651 16.824526,215.904755 31.570509,234.665298 
	C47.992554,255.558212 68.855293,270.976288 93.993042,280.000336 
	C102.526558,283.063721 111.545624,284.771484 120.329720,287.147125 
	C120.895668,287.300171 121.348694,287.870667 121.927124,288.623474 
	C81.740005,289.000000 41.480011,289.000000 1.000000,289.000000 
	C1.000000,249.312714 1.000000,209.625015 1.000000,169.468658 
z"/>
<path fill="#F0F0F0" opacity="1.000000" stroke="none" 
	d="
M192.612610,196.111740 
	C198.136505,196.145889 203.660416,196.180038 209.829651,196.434937 
	C210.770859,196.139603 211.066727,195.623520 211.362579,195.107437 
	C211.289963,171.464966 211.216919,147.822495 211.145493,124.180031 
	C211.139648,122.242264 211.144730,120.304459 211.144730,117.256119 
	C208.594696,119.013969 206.860443,120.155136 205.182831,121.374229 
	C186.190872,135.175385 167.160873,148.925186 148.273193,162.867722 
	C145.496017,164.917770 143.691788,164.921280 140.928574,162.884705 
	C131.147217,155.675644 121.148338,148.761673 111.100883,140.956726 
	C110.884125,139.227554 110.798378,138.277496 110.712631,137.327454 
	C112.935577,134.380127 114.820770,136.578827 116.616440,137.825317 
	C124.826988,143.524765 133.063110,149.193573 141.116562,155.109558 
	C143.723206,157.024353 145.528854,156.915421 148.086258,155.029144 
	C164.442551,142.965134 180.910568,131.052521 197.353622,119.106316 
	C203.749191,114.459816 210.175323,109.855354 217.248596,104.755081 
	C217.248596,137.711792 217.248596,169.871506 217.248596,202.742554 
	C207.468674,202.742554 197.707199,202.742554 187.483917,202.193024 
	C186.970062,182.321274 186.918045,162.999054 186.866028,143.676819 
	C188.501114,143.891342 190.136185,144.105865 191.563049,145.030869 
	C191.244705,161.600128 191.107483,177.458862 191.093140,193.317719 
	C191.092300,194.248611 192.083221,195.180374 192.612610,196.111740 
z"/>
<path fill="#FDFDFD" opacity="1.000000" stroke="none" 
	d="
M127.657257,121.146027 
	C126.234230,120.232452 124.811195,119.318878 123.135864,117.812508 
	C122.148911,116.859055 121.414261,116.498405 120.679611,116.137756 
	C119.247322,115.220665 117.815033,114.303566 116.130806,112.788528 
	C115.132881,111.844681 114.386902,111.498764 113.640923,111.152847 
	C111.618500,109.803993 109.596077,108.455132 107.264984,106.521545 
	C105.711258,105.418388 104.466225,104.899948 103.221184,104.381516 
	C102.862694,105.589340 102.211578,106.792976 102.194199,108.005692 
	C102.096756,114.805969 102.172791,121.608498 102.151711,128.410141 
	C102.075111,153.125061 101.983444,177.839935 101.897461,202.554825 
	C93.270622,202.604630 84.643791,202.654449 75.410645,202.305496 
	C74.167351,200.465027 72.976303,199.023788 72.975014,197.581512 
	C72.948227,167.534546 73.056282,137.487442 73.137741,107.440376 
	C73.904556,107.913536 74.671371,108.386688 75.740005,109.407059 
	C76.740067,110.276634 77.438301,110.598999 78.136536,110.921356 
	C78.613625,111.207382 79.090714,111.493408 79.822678,112.303177 
	C80.797211,113.170456 81.516861,113.513992 82.236519,113.857536 
	C82.236519,113.857536 82.644791,113.965050 82.850876,114.429718 
	C83.764725,115.227524 84.472488,115.560654 85.180252,115.893784 
	C85.650398,116.167709 86.120537,116.441643 86.840256,117.236740 
	C87.806473,118.124153 88.523109,118.490395 89.239746,118.856628 
	C89.695206,119.648628 90.150673,120.440628 90.128418,121.717651 
	C87.680374,122.187836 85.710060,122.172997 83.739738,122.158157 
	C83.739738,122.158157 83.340187,122.053711 83.145210,121.585678 
	C82.240707,120.779938 81.531174,120.442230 80.821640,120.104530 
	C80.821640,120.104530 80.385361,119.977654 80.132317,119.481941 
	C75.735100,117.520668 77.057678,120.909332 77.051933,122.480209 
	C76.967430,145.617096 76.971161,168.754532 77.071228,191.891342 
	C77.077400,193.318115 78.060539,194.740677 78.589127,196.165192 
	C84.538719,196.165192 90.488319,196.165192 97.111633,196.165192 
	C97.111633,162.145096 97.111633,128.574326 97.503693,94.563629 
	C98.318779,94.053040 98.741791,93.982361 99.164810,93.911682 
	C106.294258,98.846176 113.423714,103.780663 120.840195,109.293877 
	C121.822823,110.217590 122.518417,110.562576 123.214020,110.907555 
	C124.672089,111.849319 126.130150,112.791092 127.859894,114.303558 
	C128.831039,115.216293 129.530502,115.558334 130.229965,115.900375 
	C131.686829,116.853645 133.143677,117.806915 134.868668,119.335327 
	C135.838821,120.238579 136.540848,120.566689 137.242874,120.894798 
	C142.672272,126.293999 147.227249,124.614578 152.765762,120.243324 
	C163.159714,112.039894 174.248978,104.717468 185.695984,96.959259 
	C186.902100,96.330811 187.461304,95.771759 188.020508,95.212708 
	C188.020508,95.212700 188.208954,94.869232 188.807358,94.984283 
	C189.591232,102.257332 189.776688,109.415344 189.962158,116.573349 
	C188.983398,116.437332 188.004623,116.301315 186.968094,115.375397 
	C186.923019,111.842110 187.333237,109.025238 186.843216,106.374809 
	C186.288055,103.372162 184.640823,103.007088 182.963898,105.898834 
	C182.580734,106.271484 182.197571,106.644127 181.224762,107.057648 
	C180.082703,107.655869 179.530289,108.213219 178.977859,108.770569 
	C178.977859,108.770569 178.797455,109.121323 178.261688,109.126633 
	C177.136444,109.714546 176.546967,110.297134 175.957489,110.879730 
	C175.562531,111.254425 175.167587,111.629120 174.179977,112.048340 
	C173.050858,112.652412 172.514404,113.211960 171.977936,113.771507 
	C171.977936,113.771507 171.789230,114.119232 171.252762,114.124405 
	C170.130920,114.715714 169.545547,115.301849 168.960175,115.887978 
	C168.577911,116.263603 168.195663,116.639236 167.218048,117.060837 
	C166.060654,117.673920 165.498627,118.241035 164.936615,118.808151 
	C163.593918,119.864471 162.251205,120.920792 160.268158,122.041672 
	C159.063339,122.670616 158.498886,123.235008 157.934418,123.799393 
	C156.578842,124.851601 155.223282,125.903801 153.233963,127.024261 
	C152.058777,127.644974 151.517334,128.197433 150.975891,128.749908 
	C150.975906,128.749908 150.795013,129.106430 150.256424,129.120087 
	C149.127808,129.719498 148.537766,130.305283 147.947739,130.891052 
	C147.947739,130.891052 147.949524,130.966232 147.468262,130.948334 
	C145.196045,131.007553 143.405106,131.084671 141.614151,131.161789 
	C140.204300,130.241470 138.794449,129.321136 137.133057,127.807076 
	C136.137405,126.858780 135.393265,126.504234 134.649139,126.149681 
	C134.649139,126.149681 134.237976,126.093071 134.077759,125.587448 
	C132.661133,124.363548 131.404755,123.645264 130.148361,122.926979 
	C130.148361,122.926979 130.071762,122.947701 129.978302,122.586273 
	C129.142319,121.865234 128.399780,121.505630 127.657257,121.146027 
z"/>
<path fill="#D0D0D0" opacity="1.000000" stroke="none" 
	d="
M102.284828,202.596756 
	C101.983444,177.839935 102.075111,153.125061 102.151711,128.410141 
	C102.172791,121.608498 102.096756,114.805969 102.194199,108.005692 
	C102.211578,106.792976 102.862694,105.589340 103.221184,104.381516 
	C104.466225,104.899948 105.711258,105.418388 107.029404,106.279282 
	C106.205727,106.339836 105.308945,106.057945 103.711304,105.555748 
	C103.711304,107.871101 103.711372,109.795815 103.711296,111.720520 
	C103.710205,140.326462 103.726761,168.932434 103.663696,197.538239 
	C103.659943,199.239105 103.017456,200.938568 102.284828,202.596756 
z"/>
<path fill="#D0D0D0" opacity="1.000000" stroke="none" 
	d="
M73.011948,107.211197 
	C73.056282,137.487442 72.948227,167.534546 72.975014,197.581512 
	C72.976303,199.023788 74.167351,200.465027 74.952652,202.241180 
	C72.411804,203.476639 71.459129,202.355667 71.526688,199.699951 
	C71.619614,196.047165 71.546379,192.390182 71.546455,188.735001 
	C71.546967,162.982590 71.525658,137.230103 71.606049,111.477951 
	C71.610725,109.977989 72.440414,108.480598 73.011948,107.211197 
z"/>
<path fill="#D0D0D0" opacity="1.000000" stroke="none" 
	d="
M78.510941,195.690430 
	C78.060539,194.740677 77.077400,193.318115 77.071228,191.891342 
	C76.971161,168.754532 76.967430,145.617096 77.051933,122.480209 
	C77.057678,120.909332 75.735100,117.520668 79.983734,119.310089 
	C79.500732,120.803940 78.404037,121.972565 78.400902,123.144119 
	C78.336617,147.167786 78.397110,171.191757 78.510941,195.690430 
z"/>
<path fill="#E4E4E4" opacity="1.000000" stroke="none" 
	d="
M186.555222,143.908325 
	C186.918045,162.999054 186.970062,182.321274 187.030090,202.081146 
	C186.605621,201.619537 185.799210,200.721649 185.795959,199.820831 
	C185.731186,181.896255 185.754349,163.971329 185.788467,146.046539 
	C185.789688,145.410690 186.085770,144.775375 186.555222,143.908325 
z"/>
<path fill="#E4E4E4" opacity="1.000000" stroke="none" 
	d="
M192.525040,195.642151 
	C192.083221,195.180374 191.092300,194.248611 191.093140,193.317719 
	C191.107483,177.458862 191.244705,161.600128 191.581573,145.403381 
	C191.974930,151.990707 192.212662,158.915207 192.291031,165.841507 
	C192.401642,175.617828 192.394363,185.395462 192.525040,195.642151 
z"/>
<path fill="#EDEDED" opacity="1.000000" stroke="none" 
	d="
M190.308350,116.561546 
	C189.776688,109.415344 189.591232,102.257332 189.002075,94.962959 
	C189.177032,94.264931 189.707626,93.637009 190.353729,93.168358 
	C190.699326,92.917679 191.244034,92.941521 192.155807,92.740982 
	C192.155807,99.983887 192.205139,107.039597 192.089722,114.092598 
	C192.076187,114.919258 191.154968,115.731056 190.308350,116.561546 
z"/>
<path fill="#EDEDED" opacity="1.000000" stroke="none" 
	d="
M183.455933,105.802826 
	C184.640823,103.007088 186.288055,103.372162 186.843216,106.374809 
	C187.333237,109.025238 186.923019,111.842110 186.842896,115.078827 
	C186.442123,113.266418 186.248444,110.927635 185.714264,108.669395 
	C185.461838,107.602303 184.557144,106.689507 183.455933,105.802826 
z"/>
<path fill="#D0D0D0" opacity="1.000000" stroke="none" 
	d="
M83.882477,122.452820 
	C85.710060,122.172997 87.680374,122.187836 90.010483,122.064484 
	C88.362061,125.261543 88.036034,125.303734 83.882477,122.452820 
z"/>
<path fill="#EDEDED" opacity="1.000000" stroke="none" 
	d="
M141.756012,131.438751 
	C143.405106,131.084671 145.196045,131.007553 147.433380,130.934296 
	C146.179581,133.457291 144.210114,133.904892 141.756012,131.438751 
z"/>
<path fill="#EDEDED" opacity="1.000000" stroke="none" 
	d="
M130.273346,123.210159 
	C131.404755,123.645264 132.661133,124.363548 133.972321,125.408722 
	C132.817505,124.988190 131.607925,124.240768 130.273346,123.210159 
z"/>
<path fill="#E4E4E4" opacity="1.000000" stroke="none" 
	d="
M110.460930,137.477448 
	C110.798378,138.277496 110.884125,139.227554 110.957397,140.654678 
	C110.699699,139.963654 110.454468,138.795547 110.460930,137.477448 
z"/>
<path fill="#EDEDED" opacity="1.000000" stroke="none" 
	d="
M151.270111,128.716705 
	C151.517334,128.197433 152.058777,127.644974 152.917297,127.096588 
	C152.677704,127.628281 152.121017,128.155914 151.270111,128.716705 
z"/>
<path fill="#EDEDED" opacity="1.000000" stroke="none" 
	d="
M134.784058,126.428787 
	C135.393265,126.504234 136.137405,126.858780 136.965317,127.536560 
	C136.339050,127.475815 135.629013,127.091850 134.784058,126.428787 
z"/>
<path fill="#EDEDED" opacity="1.000000" stroke="none" 
	d="
M158.238251,123.774445 
	C158.498886,123.235008 159.063339,122.670616 159.952850,122.112793 
	C159.699295,122.662735 159.120682,123.206116 158.238251,123.774445 
z"/>
<path fill="#EDEDED" opacity="1.000000" stroke="none" 
	d="
M148.260040,130.851654 
	C148.537766,130.305283 149.127808,129.719498 150.058685,129.149292 
	C149.790466,129.714005 149.181396,130.263123 148.260040,130.851654 
z"/>
<path fill="#EDEDED" opacity="1.000000" stroke="none" 
	d="
M127.794449,121.425766 
	C128.399780,121.505630 129.142319,121.865234 129.973114,122.546928 
	C129.351486,122.481186 128.641571,122.093346 127.794449,121.425766 
z"/>
<path fill="#D0D0D0" opacity="1.000000" stroke="none" 
	d="
M80.922104,120.384605 
	C81.531174,120.442230 82.240707,120.779938 83.012512,121.427490 
	C82.390709,121.379784 81.706642,121.022232 80.922104,120.384605 
z"/>
<path fill="#E4E4E4" opacity="1.000000" stroke="none" 
	d="
M211.144257,195.306030 
	C211.066727,195.623520 210.770859,196.139603 210.299896,196.513321 
	C210.391830,196.082184 210.658859,195.793411 211.144257,195.306030 
z"/>
<path fill="#EDEDED" opacity="1.000000" stroke="none" 
	d="
M137.128937,120.625259 
	C136.540848,120.566689 135.838821,120.238579 135.053406,119.611145 
	C135.651688,119.659790 136.333344,120.007751 137.128937,120.625259 
z"/>
<path fill="#EDEDED" opacity="1.000000" stroke="none" 
	d="
M165.238419,118.770744 
	C165.498627,118.241035 166.060654,117.673920 166.948547,117.112213 
	C166.696350,117.656197 166.118286,118.194771 165.238419,118.770744 
z"/>
<path fill="#D0D0D0" opacity="1.000000" stroke="none" 
	d="
M89.143509,118.565735 
	C88.523109,118.490395 87.806473,118.124153 87.025589,117.440903 
	C87.656654,117.507553 88.351967,117.891197 89.143509,118.565735 
z"/>
<path fill="#EDEDED" opacity="1.000000" stroke="none" 
	d="
M120.810226,116.418732 
	C121.414261,116.498405 122.148911,116.859055 122.965935,117.540855 
	C122.345818,117.474571 121.643333,117.087143 120.810226,116.418732 
z"/>
<path fill="#EDEDED" opacity="1.000000" stroke="none" 
	d="
M169.274078,115.860329 
	C169.545547,115.301849 170.130920,114.715714 171.056198,114.146599 
	C170.793381,114.719978 170.190674,115.276329 169.274078,115.860329 
z"/>
<path fill="#EDEDED" opacity="1.000000" stroke="none" 
	d="
M130.111542,115.630211 
	C129.530502,115.558334 128.831039,115.216293 128.052887,114.571274 
	C128.647171,114.632217 129.320145,114.996132 130.111542,115.630211 
z"/>
<path fill="#D0D0D0" opacity="1.000000" stroke="none" 
	d="
M85.070175,115.620094 
	C84.472488,115.560654 83.764725,115.227524 82.988571,114.589729 
	C83.600151,114.638840 84.280128,114.992622 85.070175,115.620094 
z"/>
<path fill="#EDEDED" opacity="1.000000" stroke="none" 
	d="
M172.273193,113.740234 
	C172.514404,113.211960 173.050858,112.652412 173.904526,112.093987 
	C173.670639,112.633057 173.119553,113.171005 172.273193,113.740234 
z"/>
<path fill="#D0D0D0" opacity="1.000000" stroke="none" 
	d="
M82.124847,113.576279 
	C81.516861,113.513992 80.797211,113.170456 80.008919,112.514824 
	C80.631248,112.566818 81.322220,112.930916 82.124847,113.576279 
z"/>
<path fill="#EDEDED" opacity="1.000000" stroke="none" 
	d="
M113.774567,111.434296 
	C114.386902,111.498764 115.132881,111.844681 115.968353,112.510574 
	C115.341293,112.458961 114.624748,112.087349 113.774567,111.434296 
z"/>
<path fill="#EDEDED" opacity="1.000000" stroke="none" 
	d="
M176.270035,110.848328 
	C176.546967,110.297134 177.136444,109.714546 178.065796,109.149315 
	C177.797958,109.716766 177.190277,110.266846 176.270035,110.848328 
z"/>
<path fill="#EDEDED" opacity="1.000000" stroke="none" 
	d="
M123.104355,110.634842 
	C122.518417,110.562576 121.822823,110.217590 121.050659,109.570023 
	C121.647629,109.632339 122.321159,109.997238 123.104355,110.634842 
z"/>
<path fill="#D0D0D0" opacity="1.000000" stroke="none" 
	d="
M78.031723,110.650208 
	C77.438301,110.598999 76.740067,110.276634 75.972862,109.655182 
	C76.578232,109.697083 77.252579,110.038071 78.031723,110.650208 
z"/>
<path fill="#EDEDED" opacity="1.000000" stroke="none" 
	d="
M179.274872,108.739655 
	C179.530289,108.213219 180.082703,107.655869 180.957001,107.108917 
	C180.709869,107.649124 180.140869,108.178932 179.274872,108.739655 
z"/>
<path fill="#EDEDED" opacity="1.000000" stroke="none" 
	d="
M187.720123,95.242630 
	C187.461304,95.771759 186.902100,96.330811 186.019348,96.879868 
	C186.270432,96.337418 186.845078,95.804985 187.720123,95.242630 
z"/>
<path fill="#C7C7C7" opacity="1.000000" stroke="none" 
	d="
M99.191818,93.613235 
	C98.741791,93.982361 98.318779,94.053040 97.574509,94.105392 
	C97.908447,93.829651 98.563637,93.572220 99.191818,93.613235 
z"/>
</svg>